<svg xmlns="http://www.w3.org/2000/svg" width="20.078" height="26.19" viewBox="0 0 20.078 26.19"><path d="M24.039,3.6a5.047,5.047,0,0,0-5.02,5.079v2.51H14.591a.592.592,0,0,0-.591.591V25.656a4.146,4.146,0,0,0,4.134,4.134H29.944a4.146,4.146,0,0,0,4.134-4.134V11.779a.592.592,0,0,0-.591-.591H29.059V8.679A5.047,5.047,0,0,0,24.039,3.6ZM20.2,8.679a3.839,3.839,0,1,1,7.677,0v2.51H20.2ZM32.9,12.4V25.686a2.961,2.961,0,0,1-2.953,2.953H18.134a2.961,2.961,0,0,1-2.953-2.953V12.4H19.02V14.23a.591.591,0,0,0,1.181,0V12.4h7.677V14.23a.591.591,0,1,0,1.181,0V12.4Z" transform="translate(-14 -3.6)" fill="#0b0b0b"/></svg>