<svg xmlns="http://www.w3.org/2000/svg" width="21.06" height="21.061" viewBox="0 0 21.06 21.061"><g transform="translate(0.5 0.5)"><path d="M19.939,19.349l-6.1-6.1a7.984,7.984,0,1,0-.592.591l6.1,6.1a.418.418,0,1,0,.592-.591Zm-12-4.3a7.1,7.1,0,1,1,7.1-7.1A7.113,7.113,0,0,1,7.941,15.047Z" transform="translate(0 -0.002)" fill="#0b0b0b"/><path d="M19.643,20.563a.913.913,0,0,1-.649-.269l-5.777-5.777a8.465,8.465,0,1,1,1.3-1.3L20.292,19a.918.918,0,0,1-.649,1.567ZM7.941,1.338a6.6,6.6,0,1,0,6.6,6.6A6.612,6.612,0,0,0,7.941,1.338Z" transform="translate(0 -0.002)" fill="#0b0b0b"/></g></svg>