<svg xmlns="http://www.w3.org/2000/svg" width="17.764" height="26.19" viewBox="0 0 17.764 26.19"><g transform="translate(0)"><path d="M159.351,34.633a5.757,5.757,0,1,0-5.757-5.757A5.757,5.757,0,0,0,159.351,34.633Zm0-10.164a4.408,4.408,0,1,1-4.408,4.408A4.408,4.408,0,0,1,159.351,24.468Z" transform="translate(-150.469 -23.119)" fill="#0b0b0b"/><path d="M98.649,258.717h16.466a.659.659,0,0,0,.649-.681v-7.962a5.061,5.061,0,0,0-5.07-5.074H103.07A5.061,5.061,0,0,0,98,250.073v7.962A.659.659,0,0,0,98.649,258.717Zm.7-8.643a3.71,3.71,0,0,1,3.721-3.724h7.624a3.71,3.71,0,0,1,3.721,3.724v7.294H99.349Z" transform="translate(-98 -232.527)" fill="#0b0b0b"/></g></svg>