<svg xmlns="http://www.w3.org/2000/svg" width="159.001" height="159.001" viewBox="0 0 159.001 159.001"><g transform="translate(-4422 811)"><g transform="translate(4422 -811)"><path d="M159,146.579a2.484,2.484,0,0,1-2.484,2.484H14.906v7.453a2.484,2.484,0,1,1-4.969,0v-7.453H2.484a2.484,2.484,0,0,1,0-4.969H9.938V2.484a2.484,2.484,0,1,1,4.969,0V9.938H32.3a2.484,2.484,0,0,1,0,4.969H14.906V32.3h9.938a2.484,2.484,0,1,1,0,4.969H14.906V54.657H32.3a2.484,2.484,0,1,1,0,4.969H14.906V77.016h9.938a2.484,2.484,0,1,1,0,4.969H14.906V99.376H32.3a2.484,2.484,0,1,1,0,4.969H14.906v17.391h9.938a2.484,2.484,0,1,1,0,4.969H14.906v17.391H32.3v-9.938a2.484,2.484,0,0,1,4.969,0v9.938H54.657V126.7a2.484,2.484,0,0,1,4.969,0v17.391H77.016v-9.938a2.484,2.484,0,1,1,4.969,0v9.938H99.376V126.7a2.484,2.484,0,0,1,4.969,0v17.391h17.391v-9.938a2.484,2.484,0,0,1,4.969,0v9.938h17.391V126.7a2.484,2.484,0,0,1,4.969,0v17.391h7.453A2.484,2.484,0,0,1,159,146.579ZM42.344,56.411l9.938-32.3a2.48,2.48,0,0,1,1.347-1.531L80.956,10.161a3.561,3.561,0,0,1,1.029-.223H111.8a3.658,3.658,0,0,1,1.029.223l27.328,12.422a2.48,2.48,0,0,1,1.347,1.531l9.938,32.3a2.484,2.484,0,0,1-1.264,2.953L126.7,71.1v40.7a2.484,2.484,0,0,1-2.484,2.484H69.563a2.484,2.484,0,0,1-2.484-2.484V71.1L43.608,59.363A2.484,2.484,0,0,1,42.344,56.411Zm42.125-41.5a12.422,12.422,0,0,0,24.844,0ZM47.713,55.86l19.366,9.683V44.719a2.484,2.484,0,0,1,4.969,0v64.594h49.688V44.719a2.484,2.484,0,1,1,4.969,0V65.543L146.07,55.86l-8.989-29.217-22.85-10.386a17.392,17.392,0,0,1-34.68,0L56.7,26.643Z" transform="translate(0 0)" fill="#fff"/></g></g></svg>