<svg xmlns="http://www.w3.org/2000/svg" width="120" height="20" viewBox="0 0 120 20"><g transform="translate(-520 -1819)"><path d="M10,0l3,6.714,7,.925-5.146,5.075L16.18,20,10,16.422,3.82,20l1.326-7.286L0,7.639l7-.925Z" transform="translate(520 1819)" fill="#0b0b0b"/><path d="M10,0l3,6.714,7,.925-5.146,5.075L16.18,20,10,16.422,3.82,20l1.326-7.286L0,7.639l7-.925Z" transform="translate(546 1819)" fill="#0b0b0b"/><path d="M10,0l3,6.714,7,.925-5.146,5.075L16.18,20,10,16.422,3.82,20l1.326-7.286L0,7.639l7-.925Z" transform="translate(570 1819)" fill="#0b0b0b"/><path d="M10,0l3,6.714,7,.925-5.146,5.075L16.18,20,10,16.422,3.82,20l1.326-7.286L0,7.639l7-.925Z" transform="translate(596 1819)" fill="#0b0b0b"/><path d="M10,0l3,6.714,7,.925-5.146,5.075L16.18,20,10,16.422,3.82,20l1.326-7.286L0,7.639l7-.925Z" transform="translate(620 1819)" fill="#0b0b0b"/></g></svg>