<svg xmlns="http://www.w3.org/2000/svg" width="153.532" height="35.27" viewBox="0 0 153.532 35.27"><path d="M130.765,35.27,139.9,9.8c.911-2.537,1.695-4.081,4.046-4.081h4.374l-9.138,25.469c-.911,2.537-1.695,4.081-4.046,4.081Zm-34.647-.008a7.314,7.314,0,0,1-3.583-.818,5.3,5.3,0,0,1-2.752-4.873,11.664,11.664,0,0,1,.822-3.925c1.276-3.925,2.868-8.506,4.138-12.434l0-.01a11.232,11.232,0,0,1,11.019-7.664h.02l20.512,0a7.311,7.311,0,0,1,3.583.819,5.3,5.3,0,0,1,2.752,4.873,11.654,11.654,0,0,1-.822,3.924c-1.268,3.9-4.074,12.4-4.074,12.4a11.088,11.088,0,0,1-6.544,6.879,12.458,12.458,0,0,1-4.542.828Zm4.727-20.688L96.636,26.849a2.751,2.751,0,0,0,2.629,3.383h13.074c1.087,0,4.23-.167,4.23-.167,2.683-.292,4.208-1.8,5.225-4.207l.375-.977,3.943-11.588a2.782,2.782,0,0,0-2.631-3.418H107.6A6.878,6.878,0,0,0,100.845,14.574ZM81.313,35.223a9.948,9.948,0,0,1-4.3-1L63.04,23.875a1.356,1.356,0,0,0-.8-.271h-1.8a.369.369,0,0,0-.352.244L55.96,35.227h-7.3L58.078,9.673c.912-2.537,1.7-4.081,4.046-4.081H66.7l0,0L62.176,18.022a.249.249,0,0,0,.233.325H64.7a.568.568,0,0,0,.279-.073L85.889,6.554a9.471,9.471,0,0,1,4.135-1.014L96.3,5.534,71.529,21.221a.691.691,0,0,0-.03,1.11l15.065,12.9Zm-45.237,0a14.141,14.141,0,0,1-4.3-1L2.192,23.83a3.158,3.158,0,0,1-.744-.458A3.864,3.864,0,0,1,.009,20.627a3.479,3.479,0,0,1,.417-1.943L.608,18.4a7.622,7.622,0,0,1,1.682-1.586c4.335-2.949,9.3-5.923,13.69-8.778a17.547,17.547,0,0,1,9.931-2.767H45.628c4.471,0,7.305,1.8,6.352,4.5L50.9,12.706c-.927,2.469-2.038,4-4.337,4.908a16.1,16.1,0,0,1-4.989,1.052c-1.223.074-3.1.092-4.33.093-6.427.009-20.35,0-20.5,0L22.883,15.6a2.7,2.7,0,0,1,1.224-.205c5.234,0,8.011,0,13.245,0h.369c1.836,0,3.658.007,4.947-1.331a16.978,16.978,0,0,0,1.794-2.411c.473-.74,1.063-1.705.367-2.212A2.5,2.5,0,0,0,43.2,9c-.4-.019-1.311-.033-1.708-.033-5.21,0-9.744-.021-14.91.01a27.759,27.759,0,0,0-3.467.282,8.421,8.421,0,0,0-3.6,1.426l-8.924,5.5c-1.439.93-1.961,2.52-.413,3.549,1.151.766,32.754,15.489,32.754,15.489ZM150.413,3.034h0q-1.29,0-2.578,0a1.4,1.4,0,0,1-.511-.083.521.521,0,0,1-.381-.5.943.943,0,0,1,.13-.4c.194-.4.435-.867.628-1.268h0A1.728,1.728,0,0,1,149.3,0l4.232.006-1.149,2.24a1.744,1.744,0,0,1-1.613.788Zm-7.452,0h0q-1.29,0-2.578,0a1.4,1.4,0,0,1-.511-.083.52.52,0,0,1-.381-.5.944.944,0,0,1,.13-.4c.194-.4.435-.867.628-1.268h0a1.728,1.728,0,0,1,1.6-.782l4.233.006-1.148,2.24a1.744,1.744,0,0,1-1.613.788Z" fill="#fff"/></svg>