<svg xmlns="http://www.w3.org/2000/svg" width="135.706" height="31.806" viewBox="0 0 135.706 31.806"><path d="M371.583,2004.806l8.076-22.968c.805-2.288,1.5-3.68,3.577-3.68H387.1l-8.077,22.968c-.805,2.288-1.5,3.68-3.576,3.68Zm-30.625-.007a6.36,6.36,0,0,1-3.167-.738,4.8,4.8,0,0,1-2.432-4.395,10.7,10.7,0,0,1,.726-3.54c1.128-3.54,2.535-7.671,3.658-11.213l0-.01a9.94,9.94,0,0,1,9.739-6.912h.018l18.13,0a6.357,6.357,0,0,1,3.167.739,4.8,4.8,0,0,1,2.432,4.395,10.693,10.693,0,0,1-.726,3.539c-1.121,3.519-3.6,11.184-3.6,11.184a9.915,9.915,0,0,1-5.784,6.2,10.818,10.818,0,0,1-4.015.747Zm4.178-18.656-3.72,11.069a2.47,2.47,0,0,0,2.323,3.051H355.3c.961,0,3.739-.15,3.739-.15,2.372-.264,3.719-1.623,4.618-3.793l.331-.881,3.485-10.449a2.5,2.5,0,0,0-2.326-3.083H351.109A6.087,6.087,0,0,0,345.136,1986.143Zm-17.264,18.62a8.647,8.647,0,0,1-3.8-.9l-12.352-9.33a1.183,1.183,0,0,0-.71-.244H309.42a.327.327,0,0,0-.311.22l-3.646,10.261H299.01l8.325-23.044c.806-2.288,1.5-3.68,3.577-3.68h4.048l0,0-4,11.206a.224.224,0,0,0,.206.293h2.028a.5.5,0,0,0,.246-.066l18.48-10.569a8.233,8.233,0,0,1,3.655-.915l5.548,0-21.9,14.146a.631.631,0,0,0-.026,1l13.316,11.629Zm-39.985,0a12.289,12.289,0,0,1-3.8-.9l-26.149-9.371a2.787,2.787,0,0,1-.658-.413,3.506,3.506,0,0,1-1.272-2.475,3.189,3.189,0,0,1,.369-1.752l.161-.26a6.8,6.8,0,0,1,1.486-1.43c3.831-2.659,8.219-5.341,12.1-7.916a15.279,15.279,0,0,1,8.778-2.5H296.33c3.952,0,6.457,1.626,5.615,4.055l-.957,2.654c-.819,2.227-1.8,3.6-3.833,4.426a13.984,13.984,0,0,1-4.41.949c-1.081.067-2.738.083-3.827.083-5.681.008-17.988,0-18.116,0l5.425-2.854a2.347,2.347,0,0,1,1.082-.185c4.626,0,7.081,0,11.707,0h.327c1.623,0,3.233.007,4.372-1.2a15.3,15.3,0,0,0,1.585-2.174c.419-.668.94-1.538.324-1.994a2.177,2.177,0,0,0-1.442-.393c-.352-.017-1.159-.03-1.51-.03-4.605,0-8.613-.02-13.179.009a24.092,24.092,0,0,0-3.065.254,7.361,7.361,0,0,0-3.178,1.286l-7.888,4.959c-1.272.839-1.733,2.273-.365,3.2,1.017.69,28.951,13.968,28.951,13.968Zm101.062-29.027h-2.28a1.214,1.214,0,0,1-.451-.075.469.469,0,0,1-.337-.448.864.864,0,0,1,.115-.362c.171-.361.384-.782.555-1.144h0a1.519,1.519,0,0,1,1.415-.706l3.741.006-1.016,2.02a1.532,1.532,0,0,1-1.426.71Zm-6.587,0h-2.28a1.214,1.214,0,0,1-.451-.075.468.468,0,0,1-.337-.448.864.864,0,0,1,.115-.362c.171-.361.384-.782.555-1.144h0a1.518,1.518,0,0,1,1.414-.706l3.741.006-1.015,2.02a1.532,1.532,0,0,1-1.426.71Z" transform="translate(-256 -1973)" fill="#0b0b0b"/></svg>