<svg xmlns="http://www.w3.org/2000/svg" width="71.84" height="62.803" viewBox="0 0 71.84 62.803"><path d="M35.685,5.319A24.307,24.307,0,0,0,22.007,9.1C15.958,13,9.123,17.059,3.153,21.088A10.445,10.445,0,0,0,.837,23.255l-.25.394A4.723,4.723,0,0,0,.012,26.3,5.268,5.268,0,0,0,1.994,30.05a4.339,4.339,0,0,0,1.025.626L43.762,44.87a19.589,19.589,0,0,0,5.921,1.367l9.445.005S15.6,26.131,14.019,25.086c-2.133-1.406-1.414-3.577.568-4.848l12.291-7.512a11.663,11.663,0,0,1,4.952-1.949,38.526,38.526,0,0,1,4.775-.384c7.113-.042,13.358-.019,20.534-.014.546,0,1.8.02,2.352.045a3.462,3.462,0,0,1,2.247.6c.959.692.147,2.01-.5,3.021a23.15,23.15,0,0,1-2.471,3.293c-1.894,1.95-4.623,1.815-7.321,1.818-7.208.005-11.032,0-18.241,0a3.757,3.757,0,0,0-1.685.28l-8.452,4.324c.2,0,19.376.007,28.227-.005,1.7,0,4.277-.026,5.963-.127a22.344,22.344,0,0,0,6.871-1.438c3.165-1.246,4.7-3.331,5.972-6.7l1.491-4.021c1.313-3.678-2.591-6.143-8.747-6.141Z" transform="translate(0 16.56)" fill="#dd122b"/><path d="M9.267,0l2.78,6.222,6.487.857-4.769,4.7,1.229,6.752L9.267,15.218,3.54,18.534l1.229-6.752L0,7.079l6.487-.857Z" transform="translate(39.77)" fill="#dd122b"/><path d="M6,0,7.8,4.026l4.2.555L8.907,7.624l.8,4.369L6,9.847,2.29,11.992l.8-4.369L0,4.581l4.2-.555Z" transform="translate(58.303 6.541)" fill="#dd122b"/><path d="M6,0,7.8,4.026l4.2.555L8.907,7.624l.8,4.369L6,9.847,2.29,11.992l.8-4.369L0,4.581l4.2-.555Z" transform="translate(27.777 6.541)" fill="#dd122b"/></svg>