<svg xmlns="http://www.w3.org/2000/svg" width="28.145" height="28.15" viewBox="0 0 28.145 28.15"><g transform="translate(-0.449)"><path d="M28.522,8.276a10.286,10.286,0,0,0-.654-3.415A7.211,7.211,0,0,0,23.749.742,10.313,10.313,0,0,0,20.334.088C18.827.017,18.349,0,14.527,0s-4.3.017-5.8.082A10.289,10.289,0,0,0,5.311.737a6.868,6.868,0,0,0-2.5,1.628A6.931,6.931,0,0,0,1.192,4.856,10.314,10.314,0,0,0,.537,8.271C.466,9.777.449,10.256.449,14.078s.017,4.3.082,5.8a10.285,10.285,0,0,0,.655,3.415A7.21,7.21,0,0,0,5.3,27.413a10.314,10.314,0,0,0,3.415.654c1.5.066,1.98.082,5.8.082s4.3-.016,5.8-.082a10.284,10.284,0,0,0,3.415-.654,7.2,7.2,0,0,0,4.119-4.119,10.321,10.321,0,0,0,.654-3.415c.066-1.5.082-1.98.082-5.8S28.588,9.777,28.522,8.276ZM25.987,19.769a7.716,7.716,0,0,1-.484,2.612,4.67,4.67,0,0,1-2.673,2.673,7.743,7.743,0,0,1-2.612.484c-1.485.066-1.93.082-5.686.082s-4.207-.016-5.686-.082a7.712,7.712,0,0,1-2.612-.484A4.332,4.332,0,0,1,4.618,24a4.376,4.376,0,0,1-1.05-1.617,7.744,7.744,0,0,1-.484-2.612C3.017,18.29,3,17.845,3,14.089s.016-4.207.082-5.686a7.712,7.712,0,0,1,.484-2.612A4.279,4.279,0,0,1,4.623,4.174,4.37,4.37,0,0,1,6.24,3.124,7.748,7.748,0,0,1,8.852,2.64c1.485-.066,1.93-.082,5.686-.082s4.207.017,5.686.082a7.716,7.716,0,0,1,2.612.484,4.328,4.328,0,0,1,1.617,1.05A4.376,4.376,0,0,1,25.5,5.791,7.747,7.747,0,0,1,25.987,8.4c.066,1.485.082,1.93.082,5.686S26.053,18.285,25.987,19.769Zm0,0" transform="translate(0 0)" fill="#0b0b0b"/><path d="M132.181,124.5a7.231,7.231,0,1,0,7.231,7.231A7.233,7.233,0,0,0,132.181,124.5Zm0,11.922a4.691,4.691,0,1,1,4.691-4.691A4.692,4.692,0,0,1,132.181,136.422Zm0,0" transform="translate(-117.654 -117.654)" fill="#0b0b0b"/><path d="M365.826,90.29a1.688,1.688,0,1,1-1.688-1.688A1.688,1.688,0,0,1,365.826,90.29Zm0,0" transform="translate(-342.093 -83.729)" fill="#0b0b0b"/></g></svg>