<svg xmlns="http://www.w3.org/2000/svg" width="219.707" height="49.806" viewBox="0 0 219.707 49.806"><path d="M187.126,49.806,200.2,13.84c1.3-3.582,2.425-5.763,5.791-5.763h6.259L199.174,44.043c-1.3,3.582-2.425,5.763-5.789,5.763Zm-49.581-.011a10.581,10.581,0,0,1-5.127-1.155,7.469,7.469,0,0,1-3.938-6.882,16.283,16.283,0,0,1,1.176-5.543c1.826-5.543,4.1-12.012,5.922-17.559l.005-.015c2.291-6.677,8.334-10.823,15.768-10.823h.029l29.353.006a10.576,10.576,0,0,1,5.127,1.156,7.47,7.47,0,0,1,3.938,6.882,16.269,16.269,0,0,1-1.176,5.541c-1.815,5.51-5.83,17.514-5.83,17.514a15.75,15.75,0,0,1-9.364,9.714,18.038,18.038,0,0,1-6.5,1.17Zm6.765-29.214-6.023,17.333a3.9,3.9,0,0,0,3.761,4.778h18.709c1.556,0,6.053-.235,6.053-.235,3.84-.413,6.021-2.541,7.476-5.94l.536-1.379,5.643-16.363a3.94,3.94,0,0,0-3.765-4.827H153.979A9.836,9.836,0,0,0,144.31,20.581ZM116.359,49.739a14.393,14.393,0,0,1-6.151-1.413l-20-14.61a1.958,1.958,0,0,0-1.15-.383H86.486a.528.528,0,0,0-.5.345l-5.9,16.068H69.633L83.111,13.66c1.3-3.582,2.426-5.763,5.79-5.763h6.554l0,0L88.974,25.449a.352.352,0,0,0,.333.459h3.283a.824.824,0,0,0,.4-.1L122.908,9.255a13.7,13.7,0,0,1,5.917-1.432l8.982-.007L102.358,29.966a.969.969,0,0,0-.043,1.568l21.558,18.21Zm-64.735,0a20.462,20.462,0,0,1-6.153-1.413L3.137,33.651A4.528,4.528,0,0,1,2.072,33,5.435,5.435,0,0,1,.013,29.128a4.859,4.859,0,0,1,.6-2.743l.26-.406a10.843,10.843,0,0,1,2.406-2.24c6.2-4.165,13.306-8.364,19.591-12.4A25.36,25.36,0,0,1,37.079,7.436H65.294c6.4,0,10.454,2.547,9.09,6.349l-1.549,4.156c-1.326,3.487-2.916,5.644-6.206,6.931a23.306,23.306,0,0,1-7.139,1.486c-1.75.1-4.433.13-6.2.131-9.2.013-29.122.006-29.33.006l8.782-4.47a3.912,3.912,0,0,1,1.751-.289c7.49,0,11.464.005,18.954,0h.529c2.627.005,5.234.01,7.079-1.88a24,24,0,0,0,2.567-3.4c.678-1.046,1.522-2.408.525-3.123a3.612,3.612,0,0,0-2.334-.616c-.569-.027-1.876-.047-2.444-.047-7.456-.006-13.944-.03-21.336.013a40.232,40.232,0,0,0-4.962.4,12.145,12.145,0,0,0-5.146,2.014L15.158,22.86c-2.059,1.314-2.806,3.559-.591,5.012,1.647,1.081,46.872,21.872,46.872,21.872ZM215.242,4.285h0q-1.845,0-3.69,0a2.027,2.027,0,0,1-.731-.117.737.737,0,0,1-.545-.7,1.321,1.321,0,0,1,.186-.566c.278-.565.622-1.225.9-1.791h0A2.483,2.483,0,0,1,213.65,0l6.057.008-1.644,3.163a2.505,2.505,0,0,1-2.308,1.113Zm-10.664,0h0q-1.845,0-3.69,0a2.027,2.027,0,0,1-.731-.117.736.736,0,0,1-.545-.7A1.321,1.321,0,0,1,199.8,2.9c.278-.565.622-1.225.9-1.791h0A2.482,2.482,0,0,1,202.985,0l6.057.008L207.4,3.172a2.505,2.505,0,0,1-2.308,1.113Z" transform="translate(0)" fill="#0b0b0b"/></svg>