<svg xmlns="http://www.w3.org/2000/svg" width="396" height="90.227" viewBox="0 0 396 90.227"><path d="M593.277,2063.227l23.566-65.155c2.349-6.489,4.371-10.439,10.437-10.439h11.281l-23.569,65.155c-2.349,6.49-4.371,10.44-10.435,10.44Zm-89.365-.021a18.992,18.992,0,0,1-9.241-2.092c-4.758-2.589-6.939-6.88-7.1-12.467-.1-3.5,1.046-6.756,2.12-10.041,3.291-10.042,7.4-21.761,10.673-31.808l.009-.027c4.13-12.1,15.022-19.606,28.42-19.606h.052l52.905.011a18.983,18.983,0,0,1,9.241,2.1c4.758,2.589,6.939,6.879,7.1,12.467.1,3.494-1.046,6.756-2.12,10.039-3.271,9.982-10.507,31.726-10.507,31.726a28.466,28.466,0,0,1-16.878,17.6,32.359,32.359,0,0,1-11.715,2.12Zm12.193-52.923-10.855,31.4c-1.271,4.342,2.527,8.655,6.78,8.655h33.721c2.8,0,10.91-.427,10.91-.427,6.921-.748,10.853-4.6,13.475-10.762l.966-2.5,10.171-29.643c1.271-4.342-2.534-8.744-6.786-8.744H533.533C525.306,1998.264,518.646,2002.849,516.105,2010.283ZM465.727,2063.1a25.828,25.828,0,0,1-11.087-2.561L418.6,2034.076a3.518,3.518,0,0,0-2.072-.693h-4.642a.952.952,0,0,0-.908.625l-10.639,29.107H381.507l24.292-65.37c2.352-6.489,4.373-10.44,10.437-10.44h11.813l-.007.007L416.367,2019.1a.638.638,0,0,0,.6.832h5.918a1.477,1.477,0,0,0,.719-.187l53.926-29.982a24.572,24.572,0,0,1,10.664-2.594l16.189-.014-63.892,40.128a1.76,1.76,0,0,0-.077,2.841l38.857,32.989Zm-116.679,0c-3.771,0-7.644-1.418-11.09-2.561l-76.3-26.583a8.139,8.139,0,0,1-1.92-1.173,9.859,9.859,0,0,1-3.712-7.021,8.837,8.837,0,0,1,1.076-4.97l.469-.736a19.57,19.57,0,0,1,4.337-4.058c11.18-7.545,23.983-15.152,35.311-22.455a45.527,45.527,0,0,1,25.616-7.078h50.854c11.531,0,18.843,4.614,16.384,11.5l-2.793,7.529c-2.39,6.316-5.256,10.224-11.185,12.556a41.851,41.851,0,0,1-12.868,2.692c-3.154.189-7.99.235-11.167.237-16.577.023-52.489.012-52.864.012l15.829-8.1a7.02,7.02,0,0,1,3.157-.524c13.5,0,20.662.009,34.162,0,.316,0,.635,0,.953,0,4.735.009,9.434.019,12.759-3.405a43.419,43.419,0,0,0,4.626-6.166c1.221-1.895,2.743-4.363.946-5.658-1.515-1.094-2.645-1.046-4.208-1.117-1.026-.048-3.382-.084-4.405-.084-13.439-.011-25.133-.055-38.456.025a72.175,72.175,0,0,0-8.943.72,21.835,21.835,0,0,0-9.275,3.649l-23.018,14.069c-3.712,2.38-5.058,6.447-1.064,9.08,2.968,1.958,84.482,39.622,84.482,39.622Zm294.906-82.343h0q-3.326-.007-6.65,0a3.632,3.632,0,0,1-1.317-.212,1.334,1.334,0,0,1-.982-1.272,2.4,2.4,0,0,1,.334-1.025c.5-1.023,1.121-2.219,1.619-3.244v0a4.469,4.469,0,0,1,4.128-2l10.917.016-2.963,5.73a4.508,4.508,0,0,1-4.16,2.015Zm-19.22,0h0q-3.326-.007-6.65,0a3.632,3.632,0,0,1-1.317-.212,1.331,1.331,0,0,1-.983-1.272,2.4,2.4,0,0,1,.334-1.025c.5-1.023,1.121-2.219,1.619-3.244v0a4.467,4.467,0,0,1,4.125-2l10.917.016-2.961,5.73a4.508,4.508,0,0,1-4.16,2.015Z" transform="translate(-256 -1973)" fill="#dd122b"/></svg>