<svg xmlns="http://www.w3.org/2000/svg" width="32.15" height="32.15" viewBox="0 0 32.15 32.15"><path d="M179.876,7239a16.039,16.039,0,0,0-6.4,30.671c0-3-.021-2.615,2.267-12.377-1.257-2.537-.28-6.726,2.535-6.726,3.906,0,1.252,5.792.8,8.071a2.506,2.506,0,0,0,2.535,3.095c3.069,0,5.068-3.9,5.068-8.475,0-3.5-2.4-6.055-6.536-6.055-7.354,0-9.219,8.19-6.67,10.762.641.971,0,1.017,0,2.287-.445,1.344-4-.609-4-5.649,0-4.574,3.736-9.954,11.339-9.954,6,0,10.005,4.438,10.005,9.147,0,6.321-3.469,10.9-8.538,10.9a4.454,4.454,0,0,1-3.869-2.019c-.969,3.771-1.165,5.682-2.668,7.8a16.827,16.827,0,0,0,4.536.673,15.893,15.893,0,0,0,15.874-16.007c-.4-9.016-7.47-16.144-16.275-16.144" transform="translate(-164 -7239)" fill-rule="evenodd"/></svg>