<svg xmlns="http://www.w3.org/2000/svg" width="40.343" height="39" viewBox="0 0 40.343 39"><path d="M41.336,29.708a2.469,2.469,0,0,0-1.681-.471V6.362A3.363,3.363,0,0,0,36.293,3H10.741A3.363,3.363,0,0,0,7.379,6.362V31.241H2.672a.672.672,0,0,0,0,1.345H12.759v8.069H2.672a.672.672,0,0,0,0,1.345H13.431a.674.674,0,0,0,.672-.672v-.672H26.281A19.809,19.809,0,0,0,41.962,33a2.457,2.457,0,0,0-.625-3.295ZM20.828,4.345h5.379V11.9L23.86,10.491a.645.645,0,0,0-.343-.094.692.692,0,0,0-.343.094L20.828,11.9V4.345Zm-7.4,26.9H8.724V6.362a2.023,2.023,0,0,1,2.017-2.017h8.741v8.741a.667.667,0,0,0,.343.585.681.681,0,0,0,.679-.007l3.019-1.809,3.019,1.809a.645.645,0,0,0,.343.094.637.637,0,0,0,.329-.087.681.681,0,0,0,.343-.585V4.345H36.3a2.023,2.023,0,0,1,2.017,2.017V29.735a2.131,2.131,0,0,0-.4.377,7.032,7.032,0,0,1-5.346,2.474,2.668,2.668,0,0,0-2.313-4.034H23.181A6.3,6.3,0,0,0,18.7,30.408a7.527,7.527,0,0,1-4.593,2.145v-.639a.674.674,0,0,0-.672-.672Zm27.434.988A18.457,18.457,0,0,1,26.281,39.31H14.1V33.9a8.707,8.707,0,0,0,5.541-2.542A4.949,4.949,0,0,1,23.168,29.9h7.074a1.345,1.345,0,1,1,0,2.69H24.862a.672.672,0,0,0,0,1.345h7.679a8.374,8.374,0,0,0,6.388-2.952,1.2,1.2,0,0,1,1.614-.188,1.088,1.088,0,0,1,.323,1.432Z" transform="translate(-2 -3)"/></svg>