<svg xmlns="http://www.w3.org/2000/svg" width="39.009" height="39" viewBox="0 0 39.009 39"><g transform="translate(-527.996 -11268)"><path d="M29.2,12a5.2,5.2,0,1,0,5.2,5.2A5.208,5.208,0,0,0,29.2,12Zm0,9.1a3.9,3.9,0,1,1,3.9-3.9A3.9,3.9,0,0,1,29.2,21.1Z" transform="translate(518.301 11262.488)"/><path d="M14.657,16.309h2.334a9.038,9.038,0,0,0,.975,2.171.652.652,0,1,0,1.112-.683,7.754,7.754,0,0,1-.949-2.288.653.653,0,0,0-.631-.5H15.314v-2.6H17.5a.647.647,0,0,0,.631-.5,7.754,7.754,0,0,1,.949-2.288.658.658,0,0,0-.091-.8L17.44,7.273l1.84-1.84L20.827,6.98a.641.641,0,0,0,.8.091,7.754,7.754,0,0,1,2.288-.949.653.653,0,0,0,.5-.631V3.307h2.6V5.492a.647.647,0,0,0,.5.631,7.754,7.754,0,0,1,2.288.949.639.639,0,0,0,.8-.091l1.547-1.547,1.84,1.84L32.444,8.82a.641.641,0,0,0-.091.8,7.754,7.754,0,0,1,.949,2.288.653.653,0,0,0,.631.5h2.184v2.6H33.933a.647.647,0,0,0-.631.5,7.754,7.754,0,0,1-.949,2.288.651.651,0,0,0,1.105.689,9.038,9.038,0,0,0,.975-2.171h2.334a.652.652,0,0,0,.65-.65v-3.9a.652.652,0,0,0-.65-.65H34.433a8.843,8.843,0,0,0-.715-1.723l1.651-1.651a.647.647,0,0,0,0-.917L32.613,4.068a.643.643,0,0,0-.462-.189.671.671,0,0,0-.462.189L30.039,5.719A8.842,8.842,0,0,0,28.316,5V2.67a.652.652,0,0,0-.65-.65h-3.9a.652.652,0,0,0-.65.65V5a8.842,8.842,0,0,0-1.723.715L19.741,4.068a.66.66,0,0,0-.917,0L16.068,6.824a.647.647,0,0,0,0,.917l1.651,1.651A8.679,8.679,0,0,0,17,11.115H14.67a.652.652,0,0,0-.65.65v3.9a.652.652,0,0,0,.65.65Z" transform="translate(521.793 11265.98)"/><path d="M40.914,36.82l-3.9-6.5A.658.658,0,0,0,36.454,30H6.549a.644.644,0,0,0-.559.319l-3.9,6.5a.642.642,0,0,0-.007.657.658.658,0,0,0,.566.332H5.9V50.16a.652.652,0,0,0,.65.65h29.9a.652.652,0,0,0,.65-.65V37.808h3.251a.645.645,0,0,0,.566-.332A.658.658,0,0,0,40.914,36.82ZM6.92,31.3H20.358l-3.121,5.2H3.8ZM35.8,49.5H22.152V37.151a.65.65,0,0,0-1.3,0V49.5H7.2V37.8H17.6a.644.644,0,0,0,.559-.319L21.5,31.911l3.342,5.571a.658.658,0,0,0,.559.319H35.8Zm-10.031-13-3.121-5.2H36.09l3.121,5.2Z" transform="translate(526 11256.19)"/><path d="M46.65,57.3h2.6a.65.65,0,1,0,0-1.3h-2.6a.65.65,0,1,0,0,1.3Z" transform="translate(510.603 11247.093)"/><path d="M46.65,53.3h2.6a.65.65,0,0,0,0-1.3h-2.6a.65.65,0,0,0,0,1.3Z" transform="translate(510.603 11248.493)"/></g></svg>