<svg xmlns="http://www.w3.org/2000/svg" width="26" height="39" viewBox="0 0 26 39"><g transform="translate(-226 -10923)"><path d="M33.885,21.5H36.05A1.956,1.956,0,0,0,38,19.55v-2.6a1.957,1.957,0,0,0-1.3-1.833V10.45A8.458,8.458,0,0,0,28.25,2h-6.5a8.458,8.458,0,0,0-8.45,8.45v4.667A1.944,1.944,0,0,0,12,16.95v2.6a1.957,1.957,0,0,0,1.3,1.833V21.5a3.251,3.251,0,0,0,3.25,3.25h.994A9.174,9.174,0,0,0,21.1,27.759v3.087L18.994,31.9H16.55A4.555,4.555,0,0,0,12,36.45v3.9a.652.652,0,0,0,.65.65h24.7a.652.652,0,0,0,.65-.65v-3.9a4.555,4.555,0,0,0-4.55-4.55H31.006L28.9,30.847V27.759A9.14,9.14,0,0,0,33.885,21.5ZM32.8,15H31.747a3.055,3.055,0,0,1-3.1-3v-.728a.65.65,0,1,0-1.3,0A3.8,3.8,0,0,1,23.5,15.006H17.2v-4.55a4.555,4.555,0,0,1,4.55-4.55h6.5a4.555,4.555,0,0,1,4.55,4.55v4.55Zm3.9,1.95v2.6a.652.652,0,0,1-.65.65H34.1V16.3h1.95A.652.652,0,0,1,36.7,16.95Zm-22.1-6.5A7.154,7.154,0,0,1,21.75,3.3h6.5a7.154,7.154,0,0,1,7.15,7.15V15H34.1V10.45A5.859,5.859,0,0,0,28.25,4.6h-6.5a5.859,5.859,0,0,0-5.85,5.85V15H14.6Zm-.65,9.75a.652.652,0,0,1-.65-.65v-2.6a.652.652,0,0,1,.65-.65H15.9v3.9Zm2.6,3.25A1.956,1.956,0,0,1,14.6,21.5h1.515a9.107,9.107,0,0,0,.676,1.95H16.55Zm5.07,8.593,2.327,2.327-2,1.2L20.1,32.8Zm.78-1.06V28.266a9.005,9.005,0,0,0,5.2,0v2.717l-2.6,2.6ZM31.2,33.2H33.45a3.251,3.251,0,0,1,3.25,3.25V39.7H13.3V36.45a3.251,3.251,0,0,1,3.25-3.25H18.8L21.2,36.807a.648.648,0,0,0,.54.292.688.688,0,0,0,.331-.091l2.918-1.748,2.919,1.748a.623.623,0,0,0,.331.091.648.648,0,0,0,.54-.292L31.188,33.2Zm-1.3-.4-1.846,2.769-2-1.2,2.327-2.327L29.9,32.8ZM25,27.35a7.775,7.775,0,0,1-5.8-2.6h3.315a1.944,1.944,0,0,0,1.833,1.3h1.3a1.95,1.95,0,0,0,0-3.9h-1.3a1.957,1.957,0,0,0-1.833,1.3H18.253a7.714,7.714,0,0,1-1.053-3.9V16.3h6.3a5.186,5.186,0,0,0,4.342-2.327A4.412,4.412,0,0,0,31.747,16.3H32.8v3.25a7.806,7.806,0,0,1-7.8,7.8ZM23.7,24.1a.652.652,0,0,1,.65-.65h1.3a.65.65,0,0,1,0,1.3h-1.3A.652.652,0,0,1,23.7,24.1Z" transform="translate(214 10921)"/></g></svg>