<svg xmlns="http://www.w3.org/2000/svg" width="37.707" height="39" viewBox="0 0 37.707 39"><g transform="translate(-437 -10944)"><path d="M34.967,41.16l-7.507,2.951h0a2.972,2.972,0,0,0,.176-.578A3.4,3.4,0,0,0,27.7,42.9a3.244,3.244,0,0,0-3.25-3.237h-4.14a3.28,3.28,0,0,1-1.651-.448l-2.717-1.592A4.57,4.57,0,0,0,13.634,37H3.65a.652.652,0,0,0-.65.65V47.4a.649.649,0,0,0,.611.65c.247.013.5.026.774.032a14.031,14.031,0,0,1,6.48,1.463l4.121,2.3a11.2,11.2,0,0,0,5.46,1.41,11.332,11.332,0,0,0,4.641-.994L37.58,46.639a3.054,3.054,0,0,0,1.651-1.729,2.767,2.767,0,0,0-.1-2.158,3.359,3.359,0,0,0-4.16-1.586Zm3.042,3.3a1.768,1.768,0,0,1-.962.988L24.554,51.066a10.125,10.125,0,0,1-8.931-.364l-4.134-2.307a15.327,15.327,0,0,0-7.046-1.619H4.307V38.293h9.34a3.28,3.28,0,0,1,1.651.448l2.717,1.593a4.57,4.57,0,0,0,2.307.624h4.14a1.934,1.934,0,0,1,.039,3.868H17.177a.65.65,0,1,0,0,1.3h7.345a7.655,7.655,0,0,0,2.736-.539l8.164-3.211a2.081,2.081,0,0,1,2.535.923,1.49,1.49,0,0,1,.059,1.157Z" transform="translate(434 10929.743)"/><path d="M10.28,23.434a.65.65,0,0,0,.475-.786,15.6,15.6,0,1,1,28.652,4.069.649.649,0,0,0,.234.89.645.645,0,0,0,.89-.234A16.9,16.9,0,1,0,9.494,22.959a.65.65,0,0,0,.786.474Z" transform="translate(431.9 10941.99)"/><path d="M34.379,30.606a.644.644,0,0,0-.188.9.657.657,0,0,0,.546.3.617.617,0,0,0,.351-.1,12.346,12.346,0,1,0-18.369-6.227.652.652,0,1,0,1.229-.435,10.864,10.864,0,0,1-.63-3.679,11.05,11.05,0,1,1,17.075,9.256Z" transform="translate(429.447 10939.544)"/><path d="M36.75,20.25a.65.65,0,0,0,0-1.3h-3.9v-1.3a.65.65,0,0,0-1.3,0v1.3H29.925a2.925,2.925,0,1,0,0,5.85H31.55v3.25h-3.9a.65.65,0,0,0,0,1.3h3.9v1.3a.65.65,0,1,0,1.3,0v-1.3h1.625a2.925,2.925,0,0,0,0-5.85H32.85V20.25Zm-5.2,3.25H29.925a1.625,1.625,0,1,1,0-3.25H31.55Zm2.925,1.3a1.625,1.625,0,0,1,0,3.25H32.85V24.8Z" transform="translate(425.6 10936.744)"/></g></svg>