<svg xmlns="http://www.w3.org/2000/svg" width="38.986" height="39" viewBox="0 0 38.986 39"><g transform="translate(-225 -11199)"><path d="M32.585,26.856l2.482-6.192a2.751,2.751,0,0,0,.325.032,2.6,2.6,0,1,0-2.6-2.6,1.61,1.61,0,0,0,.019.175l-2.956.981-3.1-5.757a2.6,2.6,0,1,0-3.522,0l-3.1,5.757-2.956-.981c0-.058.019-.117.019-.175a2.708,2.708,0,1,0-2.274,2.567l2.482,6.192a2.574,2.574,0,0,0,2.411,1.637H30.174A2.574,2.574,0,0,0,32.585,26.856ZM35.392,16.8a1.3,1.3,0,1,1,0,2.6,1.284,1.284,0,0,1-.474-.091H34.9a1.3,1.3,0,0,1,.494-2.5ZM25,10.3a1.3,1.3,0,1,1-1.3,1.3A1.3,1.3,0,0,1,25,10.3Zm-9.9,9h-.026a1.284,1.284,0,0,1-.474.091,1.3,1.3,0,1,1,.494-.1Zm15.075,7.895H19.81a1.281,1.281,0,0,1-1.2-.819l-2.482-6.192a2.546,2.546,0,0,0,.643-.676l3.463,1.157a.732.732,0,0,0,.208.032.642.642,0,0,0,.572-.344l3.359-6.238a2.3,2.3,0,0,0,1.235,0l3.359,6.238a.654.654,0,0,0,.572.344.77.77,0,0,0,.208-.032l3.47-1.157a2.647,2.647,0,0,0,.643.676l-2.482,6.192a1.291,1.291,0,0,1-1.2.819Z" transform="translate(219.498 11194.549)"/><path d="M31.65,5.249a.652.652,0,0,0,.65-.65V2.65a.65.65,0,0,0-1.3,0V4.6A.652.652,0,0,0,31.65,5.249Z" transform="translate(212.843 11197)"/><path d="M39.679,7.967a.64.64,0,0,0,.533-.279l1.118-1.6a.649.649,0,1,0-1.066-.741l-1.118,1.6a.65.65,0,0,0,.533,1.02Z" transform="translate(210.032 11195.926)"/><path d="M44.809,15.149a.66.66,0,0,0,.221-.039l1.832-.669a.65.65,0,1,0-.442-1.222l-1.832.669a.65.65,0,0,0,.221,1.261Z" transform="translate(208.235 11193.085)"/><path d="M22.486,7.7a.647.647,0,0,0,.9.162.654.654,0,0,0,.162-.9l-1.118-1.6a.649.649,0,0,0-1.066.741Z" transform="translate(216.257 11195.92)"/><path d="M15.449,14.44l1.832.669a.66.66,0,0,0,.221.039.65.65,0,0,0,.221-1.261l-1.832-.669a.65.65,0,0,0-.442,1.222Z" transform="translate(218.44 11193.085)"/><path d="M9.128,32.461a1.988,1.988,0,0,0-.344-.273.013.013,0,0,1-.013-.013,2.282,2.282,0,0,0-2.222-.156V26.366a2.337,2.337,0,0,0-2.04-2.352A2.276,2.276,0,0,0,2,26.281v8.941a5.189,5.189,0,0,0,1.378,3.528l4.3,4.659a.666.666,0,0,1,.175.442v4.2a.652.652,0,0,0,.65.65h7.148a.652.652,0,0,0,.65-.65v-6a5.81,5.81,0,0,0-1.715-4.133L9.128,32.474ZM15,47.393H9.148V43.838a1.907,1.907,0,0,0-.52-1.319l-4.3-4.659A3.877,3.877,0,0,1,3.3,35.216V26.275a.979.979,0,0,1,.318-.721.947.947,0,0,1,.754-.247,1.036,1.036,0,0,1,.871,1.059v7.381a.656.656,0,0,0,.019.11c-.006.071-.019.143-.019.214a2.225,2.225,0,0,0,.669,1.6L9.135,38.9a.638.638,0,0,0,.461.188.666.666,0,0,0,.461-.188.647.647,0,0,0,0-.916L6.834,34.761a.974.974,0,0,1-.286-.689,1.262,1.262,0,0,1,.013-.156h0a.912.912,0,0,1,.084-.266c.006-.019.019-.032.026-.052a.683.683,0,0,1,.13-.175c.013-.013.019-.026.026-.032a.993.993,0,0,1,1.378,0l3.223,3.223h.006l2.222,2.222a4.522,4.522,0,0,1,1.332,3.216V47.4Z" transform="translate(223 11189.295)"/><path d="M41.715,37.906A5.81,5.81,0,0,0,40,42.039v6a.652.652,0,0,0,.65.65H47.8a.652.652,0,0,0,.65-.65v-4.2a.635.635,0,0,1,.175-.442l4.3-4.659A5.177,5.177,0,0,0,54.3,35.2V26.262a2.293,2.293,0,0,0-.747-1.689,2.317,2.317,0,0,0-1.761-.578,2.347,2.347,0,0,0-2.04,2.352V32a2.3,2.3,0,0,0-2.222.156.013.013,0,0,0-.013.013,2.268,2.268,0,0,0-.344.273l-5.452,5.452ZM41.3,42.039a4.522,4.522,0,0,1,1.332-3.216L44.854,36.6h.006l3.223-3.223a.993.993,0,0,1,1.378,0c.013.013.019.026.026.032a.877.877,0,0,1,.13.175c.006.019.019.032.026.052a.912.912,0,0,1,.084.266h0a1.261,1.261,0,0,1,.013.156.974.974,0,0,1-.286.689l-3.223,3.223a.647.647,0,0,0,0,.916.638.638,0,0,0,.461.188.666.666,0,0,0,.461-.188l3.223-3.223a2.262,2.262,0,0,0,.669-1.6c0-.071-.013-.143-.019-.214a.657.657,0,0,0,.019-.11V26.353a1.032,1.032,0,0,1,.871-1.059.932.932,0,0,1,.754.247.979.979,0,0,1,.318.721V35.2a3.877,3.877,0,0,1-1.033,2.645l-4.3,4.659a1.961,1.961,0,0,0-.52,1.319V47.38H41.293V42.033Z" transform="translate(209.691 11189.301)"/></g></svg>