<svg xmlns="http://www.w3.org/2000/svg" width="98.707" height="22.806" viewBox="0 0 98.707 22.806"><path d="M340.069,1995.806l5.874-16.469c.586-1.64,1.09-2.639,2.6-2.639h2.812l-5.875,16.469c-.586,1.64-1.09,2.639-2.6,2.639Zm-22.275-.005a4.68,4.68,0,0,1-2.3-.529,3.432,3.432,0,0,1-1.769-3.151,7.579,7.579,0,0,1,.528-2.538c.82-2.538,1.844-5.5,2.66-8.04l0-.007A7.223,7.223,0,0,1,324,1976.58h.013l13.187,0a4.678,4.678,0,0,1,2.3.53,3.432,3.432,0,0,1,1.769,3.151,7.572,7.572,0,0,1-.528,2.537c-.815,2.523-2.619,8.019-2.619,8.019a7.151,7.151,0,0,1-4.207,4.448,7.968,7.968,0,0,1-2.92.536Zm3.039-13.377-2.706,7.937a1.777,1.777,0,0,0,1.69,2.188h8.405c.7,0,2.719-.108,2.719-.108a3.91,3.91,0,0,0,3.359-2.72l.241-.632,2.535-7.493a1.8,1.8,0,0,0-1.692-2.21H325.178A4.423,4.423,0,0,0,320.834,1982.424Zm-12.557,13.351a6.363,6.363,0,0,1-2.764-.647l-8.984-6.69a.868.868,0,0,0-.516-.175h-1.157a.237.237,0,0,0-.226.158l-2.652,7.357h-4.693l6.055-16.523c.586-1.64,1.09-2.639,2.6-2.639h2.944l0,0-2.91,8.035a.161.161,0,0,0,.15.21H297.6a.364.364,0,0,0,.179-.047l13.442-7.578a6.059,6.059,0,0,1,2.658-.656l4.035,0-15.926,10.143a.449.449,0,0,0-.019.718l9.685,8.339Zm-29.083,0a9.045,9.045,0,0,1-2.764-.647l-19.019-6.719a2.031,2.031,0,0,1-.478-.3,2.5,2.5,0,0,1-.925-1.775,2.26,2.26,0,0,1,.268-1.256l.117-.186a4.914,4.914,0,0,1,1.081-1.026c2.787-1.907,5.978-3.83,8.8-5.676a11.233,11.233,0,0,1,6.385-1.789h12.676c2.874,0,4.7,1.166,4.084,2.907l-.7,1.9a4.726,4.726,0,0,1-2.788,3.173,10.3,10.3,0,0,1-3.207.68c-.786.048-1.991.06-2.783.06-4.132.006-13.083,0-13.177,0l3.946-2.047a1.727,1.727,0,0,1,.787-.133c3.365,0,5.15,0,8.515,0h.237c1.18,0,2.352,0,3.18-.861a10.97,10.97,0,0,0,1.153-1.559c.3-.479.684-1.1.236-1.43a1.6,1.6,0,0,0-1.049-.282c-.256-.012-.843-.021-1.1-.021-3.35,0-6.265-.014-9.586.006a17.754,17.754,0,0,0-2.229.182,5.4,5.4,0,0,0-2.312.922l-5.738,3.556c-.925.6-1.261,1.63-.265,2.295.74.495,21.058,10.015,21.058,10.015Zm73.508-20.813h-1.658a.9.9,0,0,1-.328-.054.337.337,0,0,1-.245-.321.613.613,0,0,1,.083-.259c.125-.259.279-.561.4-.82h0a1.109,1.109,0,0,1,1.029-.506l2.721,0-.739,1.448a1.119,1.119,0,0,1-1.037.51Zm-4.791,0h-1.658a.9.9,0,0,1-.328-.054.336.336,0,0,1-.245-.321.612.612,0,0,1,.083-.259c.125-.259.279-.561.4-.82h0a1.109,1.109,0,0,1,1.028-.506l2.721,0-.738,1.448a1.119,1.119,0,0,1-1.037.51Z" transform="translate(-256 -1973)" fill="#0b0b0b"/></svg>