<svg xmlns="http://www.w3.org/2000/svg" width="33.876" height="23.713" viewBox="0 0 33.876 23.713"><path d="M257.531,7298.237v-9.5c3.374,1.587,5.988,3.122,9.079,4.775-2.549,1.413-5.7,3-9.079,4.729M276.337,7284a4.4,4.4,0,0,0-2.63-1.562c-3.1-.589-22.472-.59-25.575,0a4.5,4.5,0,0,0-2.249,1.139c-2.73,2.534-1.875,16.122-1.216,18.323a4.8,4.8,0,0,0,1.085,2.09,4.368,4.368,0,0,0,2.288,1.192c2.556.529,15.725.823,25.614.079a4.437,4.437,0,0,0,2.354-1.205c2.524-2.523,2.352-16.874.331-20.057" transform="translate(-244 -7282)" fill-rule="evenodd"/></svg>